<svg width="23" height="35" viewBox="0 0 23 35" fill="none" xmlns="http://www.w3.org/2000/svg">
<rect x="7.35547" width="4.38808" height="15.4162" rx="2.19404" transform="rotate(17.8367 7.35547 0)" fill="#FF9E4F"/>
<rect x="16.3516" y="2.82153" width="4.38808" height="16.3417" rx="2.19404" transform="rotate(47.0662 16.3516 2.82153)" fill="#5D00E1"/>
<path fill-rule="evenodd" clip-rule="evenodd" d="M14.3367 29.3521C13.4591 29.7361 12.5197 29.9281 11.5187 29.9281C10.504 29.9281 9.55778 29.7361 8.68017 29.3521C7.80255 28.9682 7.04149 28.4539 6.397 27.8094C5.7525 27.1512 5.23827 26.3833 4.85431 25.5057C4.48407 24.6281 4.29895 23.6956 4.29895 22.7083C4.29895 21.721 4.48407 20.7885 4.85431 19.9109C5.23827 19.0333 5.7525 18.2722 6.397 17.6277C7.04149 16.9695 7.80255 16.4484 8.68017 16.0645C9.55778 15.6805 10.504 15.4885 11.5187 15.4885C12.5197 15.4885 13.4591 15.6805 14.3367 16.0645C15.2143 16.4484 15.9753 16.9695 16.6198 17.6277C17.2781 18.2859 17.7923 19.0538 18.1625 19.9315C18.2949 20.2292 18.4044 20.5343 18.4911 20.8467C19.0943 21.1746 19.9695 21.5013 21.0626 21.5013C21.8792 21.5013 22.4527 21.0758 22.8509 20.5414C22.7108 19.7569 22.4919 19.0051 22.1941 18.2859C21.6319 16.9147 20.7885 15.6737 19.6641 14.5629C17.3878 12.314 14.6726 11.1896 11.5187 11.1896C8.74873 11.1896 6.34214 12.0398 4.29895 13.7402V3.45559C4.29895 2.83852 4.0864 2.33115 3.6613 1.93348C3.24992 1.5221 2.74255 1.31641 2.13919 1.31641C1.52211 1.31641 1.00789 1.5221 0.596504 1.93348C0.198835 2.33115 0 2.83852 0 3.45559V22.7083C0 25.8896 1.12445 28.6048 3.37334 30.8537C5.62223 33.1026 8.33735 34.227 11.5187 34.227C14.6726 34.227 17.3878 33.1026 19.6641 30.8537C21.6324 28.9093 22.7394 26.5868 22.9849 23.8861C22.5959 23.5312 21.994 23.2566 21.0626 23.2566C19.4948 23.2566 18.8606 23.7234 18.604 24.101C18.5081 24.5839 18.361 25.0521 18.1625 25.5057C17.7923 26.3696 17.2781 27.1307 16.6198 27.7889C15.9753 28.4471 15.2143 28.9682 14.3367 29.3521Z" fill="#00BAE6"/>
<path fill-rule="evenodd" clip-rule="evenodd" d="M11.6126 29.1432C15.284 29.1432 18.2603 26.2545 18.2603 22.691C18.2603 19.1275 15.284 16.2388 11.6126 16.2388C7.94114 16.2388 4.96484 19.1275 4.96484 22.691C4.96484 26.2545 7.94114 29.1432 11.6126 29.1432ZM11.6123 26.7972C13.988 26.7972 15.9138 24.9589 15.9138 22.6912C15.9138 20.4236 13.988 18.5853 11.6123 18.5853C9.2367 18.5853 7.31086 20.4236 7.31086 22.6912C7.31086 24.9589 9.2367 26.7972 11.6123 26.7972ZM13.6856 17.1716L15.2095 18.0515L14.623 19.0674L13.099 18.1876L13.6856 17.1716ZM17.3801 23.5713L17.3801 21.8116H16.207V23.5713H17.3801ZM15.2091 27.3311L13.6852 28.211L13.0986 27.195L14.6226 26.3152L15.2091 27.3311ZM6.82258 23.5713L6.82258 21.8116H5.64945L5.64945 23.5713H6.82258ZM9.93037 18.1876L8.40642 19.0674L7.81986 18.0515L9.3438 17.1716L9.93037 18.1876ZM9.93077 27.195L8.40682 26.3152L7.82026 27.3311L9.3442 28.211L9.93077 27.195Z" fill="#F61B4F"/>
<path d="M10.1101 22.6276C10.2378 22.2326 11.3019 21.3109 11.5999 20.3452C11.8552 21.3109 13.1322 22.1448 13.1747 22.891C13.2173 23.6372 12.3235 23.8127 11.8552 23.8127C11.387 23.8127 12.1273 24.4349 12.664 24.6467H10.5783C11.3019 24.3833 11.685 23.8127 11.3019 23.8127C10.9188 23.8127 9.76961 23.5933 10.1101 22.6276Z" fill="#F61B4F"/>
</svg>
